<?xml version="1.0" encoding="utf-8"?>
<!-- Generator: Adobe Illustrator 26.0.3, SVG Export Plug-In . SVG Version: 6.00 Build 0)  -->
<svg version="1.0" id="katman_1" xmlns="http://www.w3.org/2000/svg" xmlns:xlink="http://www.w3.org/1999/xlink" x="0px" y="0px"
	 viewBox="0 0 800 600" style="enable-background:new 0 0 800 600;" xml:space="preserve">
<style type="text/css">
	.st0{fill:#8427E2;}
	.st1{clip-path:url(#SVGID_00000162352361799823604710000004648447508807083420_);}
	.st2{clip-path:url(#SVGID_00000087376053996514875420000000631488811941889923_);}
	.st3{clip-path:url(#SVGID_00000170997925517024276760000010137763732749529265_);}
	.st4{clip-path:url(#SVGID_00000066474323953047654180000015723087299152936111_);}
</style>
<g>
	<path class="st0" d="M624.4,334c2.1,0,2.9,0.8,3.8,3.5c4.3,13.6,16.9,21,31.6,21c14.4,0,25.3-6.9,25.3-17.9
		c0-9.8-6.9-16.5-23.8-21.6l-18.9-5.5c-28.3-8.3-46.7-25.8-46.7-53c0-33,24-52.7,59.9-52.7c35.9,0,58.3,24,61.9,49.3
		c0.2,2.6-1.6,5-4.5,5h-27.9c-2.4,0-3.5-0.7-4.3-2.9c-5-13.1-15.5-17.6-25.3-17.6c-12.9,0-23.1,6.1-23.1,16.5
		c0,11.1,7.6,17.1,22.4,21.3l20.8,5.9c29,8.3,46.2,26.4,46.2,54c0,30.3-24.5,53-61.9,53c-40.3,0-64.3-25.8-68.2-53.3
		c-0.3-2.6,1.9-5,4.5-5H624.4z M482.5,210.7H582c2.4,0,4.5,2.1,4.5,4.5V241c0,2.4-2.1,4.5-4.5,4.5h-67.7v36.8h51.9
		c2.6,0,4.5,2.1,4.5,4.5v25.8c0,2.4-1.9,4.5-4.5,4.5h-51.9v67.7c0,2.4-2.1,4.5-4.5,4.5h-27.4c-2.6,0-4.5-2.1-4.5-4.5V215.2
		C478,212.8,479.9,210.7,482.5,210.7L482.5,210.7z M427.3,210.7h27.4c2.4,0,4.5,2.1,4.5,4.5v169.6c0,2.4-2.1,4.5-4.5,4.5h-27.4
		c-2.6,0-4.5-2.1-4.5-4.5V215.2C422.8,212.8,424.7,210.7,427.3,210.7L427.3,210.7z M427.3,210.7"/>
	<g>
		<defs>
			<path id="SVGID_1_" d="M532.4,304c0,133.7-108.4,242-242,242c-133.7,0-242-108.3-242-242c0-133.6,108.3-242,242-242
				C424,62,532.4,170.4,532.4,304L532.4,304z M532.4,304"/>
		</defs>
		<defs>
			<rect id="SVGID_00000031206903992596193860000016912358062306847616_" x="96.4" y="152.3" width="290.2" height="291.8"/>
		</defs>
		<defs>
			<path id="SVGID_00000181083713032565599920000000138658275877996184_" d="M157.1,178.8c2.9-5,9.4-7.1,14.3-4L307,260.4
				c1.3,0.7,1.8,2.4,1,3.8c-0.7,1.4-2.4,1.7-3.8,1l-143.2-71.9C155.8,190.6,154.2,183.9,157.1,178.8L157.1,178.8z M245.4,280.2
				c-0.5-1.7-2.3-2.6-4-2.2l-135.6,27.4c-6.9,1.4-10.8,8.9-8.9,15.6c1.9,6.7,9.1,11.1,15.6,8.9l130.6-45.5
				C244.9,283.7,245.9,282,245.4,280.2L245.4,280.2z M111.4,279.2l175.5-10.1c1.9-0.1,3.2-1.5,3.2-3.3c0-1.9-1.5-3.3-3.2-3.3
				l-175.5-8.8c-7-0.4-12.6,5.8-12.6,12.8C98.8,273.5,104.3,279.6,111.4,279.2L111.4,279.2z M321.5,270.4c0.8,1.1,2.2,1.5,3.4,0.9
				c1.1-0.8,1.5-2.3,0.9-3.4l-60.2-111.2c-2.4-4.4-8.4-5.8-12.5-3c-4.1,2.7-6,8.5-3,12.5L321.5,270.4z M129.7,231.8l130.6,24.5
				c1.6,0.3,3.1-0.5,3.6-2.1c0.4-1.6-0.5-3-2.1-3.6l-125.4-43.5c-6.7-2.4-13.8,2.3-15.5,9.1C118.9,223,122.8,230.5,129.7,231.8
				L129.7,231.8z M203.6,171.3l88.3,74.5c1,0.9,2.6,0.9,3.5-0.1c1-1,0.9-2.5-0.1-3.5L217,157.3c-3.6-3.9-10-3.6-13.5,0.2
				C199.7,161.4,199.6,167.9,203.6,171.3L203.6,171.3z M323.8,255.2c0.4,1.1,1.5,1.8,2.6,1.4c1.1-0.4,1.6-1.5,1.4-2.6l-18.9-83.4
				c-1-4.3-5.6-6.5-9.8-5.3c-4.1,1.3-6.8,5.8-5.3,9.8L323.8,255.2z M373.7,267.5l-15.5,21.8c-0.6,0.9-0.6,1.8,0,2.5
				c0.7,0.8,1.8,0.6,2.5,0l21.9-15.6c2.8-2,2.4-6.4-0.1-8.8C380.1,265,375.7,264.6,373.7,267.5L373.7,267.5z M377.4,289.2l-44.2,28
				c-0.9,0.5-1.3,1.5-0.7,2.4c0.5,0.9,1.5,1.1,2.4,0.8l48.3-20c3.1-1.4,4.3-5.4,2.6-8.4C384.3,288.9,380.3,287.4,377.4,289.2
				L377.4,289.2z M346.8,262c1,0.3,1.8-0.4,2.1-1.3l14.4-39c1.3-3.2-1.3-6.6-4.6-7.5c-3.4-0.9-7.1,0.8-7.6,4.3l-5.5,41.4
				C345.5,260.9,345.9,261.7,346.8,262L346.8,262z M336.2,286.6c1,0,1.8-0.8,1.8-1.8l3.8-90.5c0.1-3.4-2.9-6.1-6.4-6.1
				c-3.4,0-6.4,2.6-6.3,6l5.3,90.7C334.4,285.9,335.2,286.6,336.2,286.6L336.2,286.6z M338.4,304.6c0.9,0.5,1.9,0.1,2.4-0.7
				l35.1-55.7c1.9-2.9,0.5-6.8-2.5-8.4c-3-1.6-6.9-1-8.4,2.2l-27.5,60.2C337.3,303.1,337.7,304.1,338.4,304.6L338.4,304.6z
				 M370.5,345.9l-27.1-2.7c-1-0.1-1.9,0.4-2.1,1.3c-0.2,1,0.4,1.8,1.3,2.3l24.8,11.5c3.1,1.5,6.8-1.1,7.6-4.5
				C375.8,350.3,373.9,346.3,370.5,345.9L370.5,345.9z M362.7,363.5l-62.9-29.3c-0.9-0.4-1.9-0.1-2.4,0.8c-0.5,0.9-0.1,1.9,0.6,2.4
				l58,38c3.1,2,7.4,0.6,9.3-2.6C367.2,369.4,366.2,365.2,362.7,363.5L362.7,363.5z M283.4,328.3c-0.6-0.9-1.8-1.1-2.5-0.6
				c-0.9,0.5-1.1,1.6-0.6,2.5l41.3,77.9c2,3.8,7,4.6,10.5,2.5c3.6-2.3,5-7.1,2.5-10.5L283.4,328.3z M274.5,277.4
				c-0.9-1.5-2.9-2-4.5-1.1l-149.8,78.2c-6.3,3.2-8.1,11.5-4.5,17.4c3.6,6.1,11.6,8.4,17.4,4.5h0.1l140.1-94.4
				C274.9,280.7,275.4,278.9,274.5,277.4L274.5,277.4z M378.7,309.9l-24.4,9.4c-0.9,0.4-1.5,1.1-1.4,2.1c0.2,1,1.1,1.4,2.1,1.4
				l26.1-2.1c3-0.2,4.8-3.6,4.1-6.6C384.6,311,381.6,308.8,378.7,309.9L378.7,309.9z M375.7,326.9l-57.7,4.3c-1,0.1-1.8,0.8-1.8,1.8
				c0,1,0.7,1.7,1.8,1.7l57.5,4.8c3.4,0.2,6.3-2.7,6.3-6.3C381.8,329.8,379.1,326.6,375.7,326.9L375.7,326.9z M350.9,381.4
				l-39.3-28.8c-0.8-0.6-1.9-0.6-2.5,0.1c-0.6,0.8-0.5,1.8,0.1,2.5l31.5,37c2.6,3.1,7.9,2.6,10.6-0.4
				C354,389,354.3,383.9,350.9,381.4L350.9,381.4z M246.9,309.6c-1-1-2.6-0.9-3.6,0l-93.8,84.8c-4.5,4.1-4.1,11.5,0.3,15.6
				c4.4,4.3,11.8,4.4,15.6-0.2l81.5-96.6C247.7,312.3,247.9,310.6,246.9,309.6L246.9,309.6z M267.5,296.1c-1.3-0.6-2.7-0.1-3.5,1
				l-76.3,121.8c-3.3,5.3-1,12.1,4.4,15c5.4,3,12.4,1.1,15-4.4l61.3-130.1C269.1,298.2,268.7,296.7,267.5,296.1L267.5,296.1z
				 M272.3,315.4c-0.1-1.1-1-2-2.1-1.9c-1.1,0-1.9,1-1.9,2.1L268,430.2c0,4.8,4.3,8.3,8.9,8c4.6-0.2,8.5-4.3,8-8.9L272.3,315.4z
				 M284.5,350.8c-0.4-1-1.4-1.5-2.4-1.1c-1,0.4-1.4,1.4-1.1,2.4l16.8,69.5c1,4.1,5.6,6.3,9.6,4.9c4-1.4,6.5-5.8,4.9-9.6
				L284.5,350.8z M260.9,331.5c-1.3-0.2-2.4,0.5-2.8,1.8l-27.6,98.2c-1.4,5,2.3,10,7.3,11c5,1,10.4-2.1,11-7.3l13.8-101
				C262.9,333,262.1,331.8,260.9,331.5L260.9,331.5z M260.9,331.5"/>
		</defs>
		<defs>
			<rect id="SVGID_00000077286350569179463290000016455912534721314471_" x="96.4" y="152.3" width="290.2" height="291.8"/>
		</defs>
		<clipPath id="SVGID_00000098917367350960076060000013627133314178703752_">
			<use xlink:href="#SVGID_1_"  style="overflow:visible;"/>
		</clipPath>
		
			<clipPath id="SVGID_00000156587821268921327140000008381274826513607069_" style="clip-path:url(#SVGID_00000098917367350960076060000013627133314178703752_);">
			<use xlink:href="#SVGID_00000031206903992596193860000016912358062306847616_"  style="overflow:visible;"/>
		</clipPath>
		
			<clipPath id="SVGID_00000126286576035674671210000014735458821486195098_" style="clip-path:url(#SVGID_00000156587821268921327140000008381274826513607069_);">
			<use xlink:href="#SVGID_00000181083713032565599920000000138658275877996184_"  style="overflow:visible;"/>
		</clipPath>
		
			<clipPath id="SVGID_00000001660138721374786140000003835110908297787560_" style="clip-path:url(#SVGID_00000126286576035674671210000014735458821486195098_);">
			<use xlink:href="#SVGID_00000077286350569179463290000016455912534721314471_"  style="overflow:visible;"/>
		</clipPath>
		<g style="clip-path:url(#SVGID_00000001660138721374786140000003835110908297787560_);">
			<defs>
				<rect id="SVGID_00000106109842412222060640000006835957746146761901_" x="96.4" y="152.3" width="290.2" height="290.2"/>
			</defs>
			<clipPath id="SVGID_00000150075530441984103110000003075508275535155083_">
				<use xlink:href="#SVGID_00000106109842412222060640000006835957746146761901_"  style="overflow:visible;"/>
			</clipPath>
			
				<g transform="matrix(1 0 0 1 0 3.051758e-05)" style="clip-path:url(#SVGID_00000150075530441984103110000003075508275535155083_);">
				
					<image style="overflow:visible;" width="368" height="366" xlink:href="299E977A.jpg"  transform="matrix(0.8004 0 0 -0.8004 95.0352 443.84)">
				</image>
			</g>
		</g>
	</g>
</g>
</svg>
