<svg xmlns="http://www.w3.org/2000/svg" version="1.1" xmlns:xlink="http://www.w3.org/1999/xlink" xmlns:svgjs="http://svgjs.dev/svgjs" width="2000" height="2024" viewBox="0 0 2000 2024"><g transform="matrix(1,0,0,1,1.7678688524587187,0.8194331983804659)"><svg viewBox="0 0 244 247" data-background-color="#ffffff" preserveAspectRatio="xMidYMid meet" height="2024" width="2000" xmlns="http://www.w3.org/2000/svg" xmlns:xlink="http://www.w3.org/1999/xlink"><g id="tight-bounds" transform="matrix(1,0,0,1,-0.21567999999996346,-0.09999999999999432)"><svg viewBox="0 0 244.43135999999996 247.2" height="247.2" width="244.43135999999996"><g><svg></svg></g><g><svg viewBox="0 0 244.43135999999996 247.2" height="247.2" width="244.43135999999996"><g transform="matrix(1,0,0,1,0,80.1784669452208)"><svg viewBox="0 0 244.43135999999996 86.84306610955838" height="86.84306610955838" width="244.43135999999996"><g><svg viewBox="0 0 244.43135999999996 86.84306610955838" height="86.84306610955838" width="244.43135999999996"><g><svg viewBox="0 0 244.43135999999996 86.84306610955838" height="86.84306610955838" width="244.43135999999996"><g><svg viewBox="0 0 244.43135999999996 86.84306610955838" height="86.84306610955838" width="244.43135999999996"><g id="textblocktransform"><svg viewBox="0 0 244.43135999999996 86.84306610955838" height="86.84306610955838" width="244.43135999999996" id="textblock"><g><svg viewBox="0 0 244.43135999999996 60.09779305785123" height="60.09779305785123" width="244.43135999999996"><g transform="matrix(1,0,0,1,0,0)"><svg width="244.43135999999996" viewBox="2.5 -36 193.58 47.6" height="60.09779305785123" data-palette-color="#f86844"><path d="M11.7 0.6L11.7 0.6Q8.6 0.6 6.55-0.45 4.5-1.5 3.5-3.25 2.5-5 2.5-7.05L2.5-7.05Q2.5-10.85 5.4-12.9 8.3-14.95 13.3-14.95L13.3-14.95 20-14.95 20-15.25Q20-18.5 18.3-20.18 16.6-21.85 13.75-21.85L13.75-21.85Q11.3-21.85 9.53-20.63 7.75-19.4 7.3-17.05L7.3-17.05 3-17.05Q3.25-19.75 4.83-21.6 6.4-23.45 8.75-24.43 11.1-25.4 13.75-25.4L13.75-25.4Q18.95-25.4 21.58-22.63 24.2-19.85 24.2-15.25L24.2-15.25 24.2 0 20.45 0 20.2-4.45Q19.15-2.35 17.13-0.88 15.1 0.6 11.7 0.6ZM12.35-2.95L12.35-2.95Q14.75-2.95 16.48-4.2 18.2-5.45 19.1-7.45 20-9.45 20-11.65L20-11.65 20-11.7 13.65-11.7Q9.95-11.7 8.43-10.43 6.9-9.15 6.9-7.25L6.9-7.25Q6.9-5.3 8.33-4.13 9.75-2.95 12.35-2.95ZM34.7 0L30.5 0 30.5-36 34.7-36 34.7 0ZM45.8 0L41.6 0 41.6-24.8 45.4-24.8 45.7-21.2Q46.9-23.2 48.9-24.3 50.9-25.4 53.4-25.4L53.4-25.4Q56.34-25.4 58.47-24.2 60.6-23 61.75-20.55L61.75-20.55Q63.05-22.8 65.32-24.1 67.59-25.4 70.25-25.4L70.25-25.4Q74.7-25.4 77.34-22.73 80-20.05 80-14.5L80-14.5 80 0 75.84 0 75.84-14.05Q75.84-17.9 74.3-19.85 72.75-21.8 69.84-21.8L69.84-21.8Q66.84-21.8 64.87-19.48 62.9-17.15 62.9-12.85L62.9-12.85 62.9 0 58.7 0 58.7-14.05Q58.7-17.9 57.15-19.85 55.59-21.8 52.7-21.8L52.7-21.8Q49.75-21.8 47.77-19.48 45.8-17.15 45.8-12.85L45.8-12.85 45.8 0ZM94.59 0.6L94.59 0.6Q91.49 0.6 89.44-0.45 87.39-1.5 86.39-3.25 85.39-5 85.39-7.05L85.39-7.05Q85.39-10.85 88.29-12.9 91.19-14.95 96.19-14.95L96.19-14.95 102.89-14.95 102.89-15.25Q102.89-18.5 101.19-20.18 99.49-21.85 96.64-21.85L96.64-21.85Q94.19-21.85 92.42-20.63 90.64-19.4 90.19-17.05L90.19-17.05 85.89-17.05Q86.14-19.75 87.72-21.6 89.29-23.45 91.64-24.43 93.99-25.4 96.64-25.4L96.64-25.4Q101.84-25.4 104.47-22.63 107.09-19.85 107.09-15.25L107.09-15.25 107.09 0 103.34 0 103.09-4.45Q102.04-2.35 100.02-0.88 97.99 0.6 94.59 0.6ZM95.24-2.95L95.24-2.95Q97.64-2.95 99.37-4.2 101.09-5.45 101.99-7.45 102.89-9.45 102.89-11.65L102.89-11.65 102.89-11.7 96.54-11.7Q92.84-11.7 91.32-10.43 89.79-9.15 89.79-7.25L89.79-7.25Q89.79-5.3 91.22-4.13 92.64-2.95 95.24-2.95ZM123.19-7.8L123.19-7.8Q121.09-7.8 119.34-8.35L119.34-8.35 116.84-6Q117.39-5.6 118.22-5.33 119.04-5.05 120.59-4.83 122.14-4.6 124.94-4.35L124.94-4.35Q129.94-4 132.09-2.05 134.24-0.1 134.24 3.05L134.24 3.05Q134.24 5.2 133.06 7.15 131.89 9.1 129.47 10.35 127.04 11.6 123.24 11.6L123.24 11.6Q119.89 11.6 117.29 10.73 114.69 9.85 113.24 8.08 111.79 6.3 111.79 3.6L111.79 3.6Q111.79 2.2 112.54 0.58 113.29-1.05 115.34-2.5L115.34-2.5Q114.24-2.95 113.47-3.48 112.69-4 112.04-4.65L112.04-4.65 112.04-5.8 116.29-10Q113.34-12.5 113.34-16.6L113.34-16.6Q113.34-19.05 114.49-21.05 115.64-23.05 117.84-24.23 120.04-25.4 123.19-25.4L123.19-25.4Q125.34-25.4 127.09-24.8L127.09-24.8 136.24-24.8 136.24-21.65 131.59-21.45Q133.04-19.35 133.04-16.6L133.04-16.6Q133.04-14.15 131.87-12.15 130.69-10.15 128.52-8.97 126.34-7.8 123.19-7.8ZM123.19-11.25L123.19-11.25Q125.84-11.25 127.42-12.63 128.99-14 128.99-16.6L128.99-16.6Q128.99-19.15 127.42-20.53 125.84-21.9 123.19-21.9L123.19-21.9Q120.49-21.9 118.92-20.53 117.34-19.15 117.34-16.6L117.34-16.6Q117.34-14 118.92-12.63 120.49-11.25 123.19-11.25ZM115.89 3.2L115.89 3.2Q115.89 5.7 117.99 6.93 120.09 8.15 123.24 8.15L123.24 8.15Q126.34 8.15 128.22 6.8 130.09 5.45 130.09 3.2L130.09 3.2Q130.09 1.6 128.79 0.43 127.49-0.75 123.99-0.95L123.99-0.95Q121.24-1.15 119.24-1.45L119.24-1.45Q117.19-0.35 116.54 0.93 115.89 2.2 115.89 3.2ZM149.24 0.6L149.24 0.6Q146.14 0.6 144.09-0.45 142.04-1.5 141.04-3.25 140.04-5 140.04-7.05L140.04-7.05Q140.04-10.85 142.94-12.9 145.84-14.95 150.84-14.95L150.84-14.95 157.54-14.95 157.54-15.25Q157.54-18.5 155.84-20.18 154.14-21.85 151.29-21.85L151.29-21.85Q148.84-21.85 147.06-20.63 145.29-19.4 144.84-17.05L144.84-17.05 140.54-17.05Q140.79-19.75 142.36-21.6 143.94-23.45 146.29-24.43 148.64-25.4 151.29-25.4L151.29-25.4Q156.49-25.4 159.11-22.63 161.74-19.85 161.74-15.25L161.74-15.25 161.74 0 157.99 0 157.74-4.45Q156.69-2.35 154.66-0.88 152.64 0.6 149.24 0.6ZM149.89-2.95L149.89-2.95Q152.29-2.95 154.01-4.2 155.74-5.45 156.64-7.45 157.54-9.45 157.54-11.65L157.54-11.65 157.54-11.7 151.19-11.7Q147.49-11.7 145.96-10.43 144.44-9.15 144.44-7.25L144.44-7.25Q144.44-5.3 145.86-4.13 147.29-2.95 149.89-2.95ZM185.09 0L166.34 0 166.34-3.45 180.14-21.3 166.59-21.3 166.59-24.8 184.84-24.8 184.84-21.35 171.04-3.5 185.09-3.5 185.09 0ZM193.18-30.3L193.18-30.3Q191.93-30.3 191.11-31.13 190.28-31.95 190.28-33.2L190.28-33.2Q190.28-34.4 191.11-35.2 191.93-36 193.18-36L193.18-36Q194.38-36 195.23-35.2 196.08-34.4 196.08-33.2L196.08-33.2Q196.08-31.95 195.23-31.13 194.38-30.3 193.18-30.3ZM195.28 0L191.08 0 191.08-24.8 195.28-24.8 195.28 0Z" opacity="1" transform="matrix(1,0,0,1,0,0)" fill="#f86844" class="wordmark-text-0" data-fill-palette-color="primary" id="text-0"></path></svg></g></svg></g><g transform="matrix(1,0,0,1,0,74.28543965177651)"><svg viewBox="0 0 244.43135999999996 12.557626457781858" height="12.557626457781858" width="244.43135999999996"><g transform="matrix(1,0,0,1,0,0)"><svg width="244.43135999999996" viewBox="4 -35.55 925.55 47.55" height="12.557626457781858" data-palette-color="#3e0e71"><path d="M15.35 0.9L15.35 0.9Q10.25 0.9 7.13-1.58 4-4.05 4-9.05L4-9.05Q4-10.15 4.17-11.3 4.35-12.45 4.55-13.7L4.55-13.7 5.3-17.9Q5.7-20.4 6.28-23.4 6.85-26.4 7.35-29.15L7.35-29.15Q7.7-31.5 5.45-32.35L5.45-32.35 5.1-32.5 5.2-33 17.85-33 17.75-32.5 17.25-32.3Q15-31.55 14.55-29.2L14.55-29.2 11.7-14.05Q11.5-12.9 11.35-11.73 11.2-10.55 11.2-9.35L11.2-9.35Q11.2-6 12.88-4.1 14.55-2.2 17.75-2.2L17.75-2.2Q21.5-2.2 23.8-4.78 26.1-7.35 26.9-11.7L26.9-11.7 30.2-29.15Q30.65-31.6 28.35-32.4L28.35-32.4 28.05-32.5 28.15-33 34.85-33 34.75-32.5 34.25-32.3Q32-31.55 31.55-29.2L31.55-29.2 28.25-11.25Q27.25-5.8 24-2.45 20.75 0.9 15.35 0.9ZM38.45 0L32.4 0.35 31.95 0 35.8-18.4Q36.25-20.35 34.4-21.2L34.4-21.2 33.55-21.6 33.6-22.1 42.9-24.85 43.35-24.45 42.2-18.4Q44.8-21.35 47.5-23.08 50.2-24.8 52.6-24.8L52.6-24.8Q54.2-24.8 55.25-23.83 56.3-22.85 56.3-20.8L56.3-20.8Q56.3-19.75 56.1-18.63 55.9-17.5 55.6-16.3L55.6-16.3 52.95-5.65Q52.75-4.85 52.65-4.33 52.55-3.8 52.55-3.4L52.55-3.4Q52.55-2.35 53.4-2.35L53.4-2.35Q54.8-2.35 56.95-4.6L56.95-4.6 57.45-4.1Q56.2-2.25 54.15-0.75 52.1 0.75 49.6 0.75L49.6 0.75Q47.95 0.75 47.05-0.03 46.15-0.8 46.15-2.2L46.15-2.2Q46.15-3.25 46.4-4.38 46.65-5.5 46.95-6.7L46.95-6.7 48.9-14.5Q49.3-16.1 49.55-17.35 49.8-18.6 49.8-19.65L49.8-19.65Q49.8-20.55 49.4-20.93 49-21.3 48.3-21.3L48.3-21.3Q47.1-21.3 45.48-20.25 43.85-19.2 41.9-16.95L41.9-16.95 40.5-10.65Q39.95-8 39.45-5.35 38.95-2.7 38.45 0L38.45 0ZM63.55 0.75L63.55 0.75Q61.9 0.75 60.93-0.1 59.95-0.95 59.95-2.55L59.95-2.55Q59.95-3.45 60.15-4.73 60.35-6 60.75-8L60.75-8 63.6-21.8Q64-23.7 64.28-25.25 64.55-26.8 64.9-28.75L64.9-28.75Q65.25-30.75 63.3-31.45L63.3-31.45 62.45-31.75 62.55-32.25 72.35-35.05 72.65-34.7 66.5-5.7Q66.35-4.95 66.25-4.38 66.15-3.8 66.15-3.4L66.15-3.4Q66.15-2.3 67.1-2.3L67.1-2.3Q68.35-2.3 70.75-4.55L70.75-4.55 71.25-4.15Q70-2.3 68.1-0.78 66.2 0.75 63.55 0.75ZM82.9 0.75L82.9 0.75Q80.3 0.75 78.15-0.28 76-1.3 74.75-3.38 73.5-5.45 73.5-8.65L73.5-8.65Q73.5-11.85 74.58-14.75 75.65-17.65 77.6-19.93 79.55-22.2 82.15-23.5 84.75-24.8 87.8-24.8L87.8-24.8Q90.45-24.8 92.53-23.78 94.6-22.75 95.83-20.7 97.05-18.65 97.05-15.45L97.05-15.45Q97.05-12.3 95.98-9.38 94.9-6.45 92.98-4.17 91.05-1.9 88.48-0.58 85.9 0.75 82.9 0.75ZM83.5-0.25L83.5-0.25Q85.05-0.25 86.33-1.68 87.6-3.1 88.55-5.48 89.5-7.85 90-10.73 90.5-13.6 90.5-16.45L90.5-16.45Q90.5-20.6 89.65-22.2 88.8-23.8 87.45-23.8L87.45-23.8Q85.85-23.8 84.5-22.4 83.15-21 82.15-18.65 81.15-16.3 80.6-13.45 80.05-10.6 80.05-7.75L80.05-7.75Q80.05-3.5 81.05-1.88 82.05-0.25 83.5-0.25ZM108.2 0.75L108.2 0.75Q104.5 0.75 102.15-1.75 99.8-4.25 99.8-8.75L99.8-8.75Q99.8-11.95 100.9-14.83 102-17.7 103.98-19.95 105.95-22.2 108.53-23.5 111.1-24.8 114.05-24.8L114.05-24.8Q115.8-24.8 117.33-24.25 118.85-23.7 119.78-22.7 120.7-21.7 120.65-20.35L120.65-20.35Q120.6-19 119.8-18.23 119-17.45 117.7-17.45L117.7-17.45Q116.3-17.45 115.45-18.3 114.6-19.15 114.1-20.25L114.1-20.25 113.8-21.1Q113.1-22.75 112.58-23.08 112.05-23.4 110.8-22.35L110.8-22.35Q109.45-21.2 108.28-19.25 107.1-17.3 106.4-14.95 105.7-12.6 105.7-10.15L105.7-10.15Q105.7-6.4 107.33-4.63 108.95-2.85 111.7-2.85L111.7-2.85Q113.5-2.85 115.25-4 117-5.15 118.5-7.2L118.5-7.2 119.2-6.7Q118.15-4.75 116.5-3.05 114.85-1.35 112.73-0.3 110.6 0.75 108.2 0.75ZM126.7 0L120.95 0.4 120.3-0.15 124.8-21.8Q125.15-23.55 125.5-25.25 125.85-26.95 126.15-28.7L126.15-28.7Q126.45-30.8 124.55-31.45L124.55-31.45 123.7-31.8 123.8-32.25 133.4-35.05 133.75-34.7 128.75-10.7Q128.1-7.65 127.63-5.18 127.15-2.7 126.7 0L126.7 0ZM142.6 0L134.5 0Q133.8-0.7 133.2-2.15 132.6-3.6 132.05-5L132.05-5 129.25-12.7 141.7-24.5Q143.05-24.45 144-23.65 144.95-22.85 144.95-21.4L144.95-21.4Q144.95-20.1 143.9-19.23 142.85-18.35 141.2-17.55L141.2-17.55 131.25-12.85 140.2-2.55Q140.75-1.95 141.2-1.55 141.65-1.15 142.3-0.75L142.3-0.75 142.7-0.5 142.6 0ZM161.7 0.75L161.7 0.75Q160.15 0.75 159.13-0.08 158.1-0.9 158.1-2.5L158.1-2.5Q158.1-3.5 158.3-4.67 158.5-5.85 158.75-7.2L158.75-7.2 162.2-23 158.05-23 158.2-23.6 160-23.8Q161.4-23.95 162.45-24.5 163.5-25.05 164.45-26.05L164.45-26.05 169.25-30.9 170-30.9 168.6-24.05 174.05-24.05 173.8-23 168.35-23 164.9-6.35Q164.7-5.4 164.6-4.73 164.5-4.05 164.5-3.6L164.5-3.6Q164.5-3.1 164.8-2.8 165.1-2.5 165.45-2.5L165.45-2.5Q166.15-2.5 166.95-3.08 167.75-3.65 168.95-4.8L168.95-4.8 169.55-4.3Q168.3-2.45 166.3-0.85 164.3 0.75 161.7 0.75ZM179.1 0L172.95 0.3 172.65 0 177.2-21.8Q177.6-23.7 177.9-25.23 178.2-26.75 178.55-28.65L178.55-28.65Q178.95-30.8 176.9-31.5L176.9-31.5 176.1-31.75 176.2-32.25 185.75-35.05 186.1-34.7 182.7-18.75Q185.2-21.35 188.03-23.08 190.85-24.8 193.25-24.8L193.25-24.8Q194.85-24.8 195.88-23.83 196.9-22.85 196.9-20.8L196.9-20.8Q196.9-19.75 196.7-18.63 196.5-17.5 196.2-16.3L196.2-16.3 193.7-6.1Q193.5-5.15 193.3-4.48 193.1-3.8 193.1-3.4L193.1-3.4Q193.1-2.35 194-2.35L194-2.35Q195.3-2.35 197.65-4.55L197.65-4.55 198.1-4.1Q196.9-2.25 194.85-0.75 192.8 0.75 190.2 0.75L190.2 0.75Q188.55 0.75 187.65-0.03 186.75-0.8 186.75-2.2L186.75-2.2Q186.75-3.25 187-4.38 187.25-5.5 187.6-6.7L187.6-6.7 189.85-15.5Q190.2-16.85 190.48-17.98 190.75-19.1 190.75-19.9L190.75-19.9Q190.75-21.65 189.1-21.65L189.1-21.65Q186.65-21.65 182.65-17.65L182.65-17.65 181.15-10.7Q180.5-7.65 180.03-5.18 179.55-2.7 179.1 0L179.1 0ZM209.55 0.75L209.55 0.75Q205.8 0.75 203.45-1.7 201.1-4.15 201.1-8.65L201.1-8.65Q201.1-11.85 202.2-14.75 203.3-17.65 205.28-19.93 207.25-22.2 209.85-23.5 212.45-24.8 215.5-24.8L215.5-24.8Q218.65-24.8 220.33-23.38 222-21.95 222-19.6L222-19.6Q222-17.65 220.18-15.75 218.35-13.85 215.05-12.33 211.75-10.8 207.3-10L207.3-10Q207.35-6.55 208.8-4.95 210.25-3.35 212.8-3.35L212.8-3.35Q214.95-3.35 216.75-4.53 218.55-5.7 219.8-7.3L219.8-7.3 220.3-6.95Q219.3-5 217.73-3.25 216.15-1.5 214.1-0.38 212.05 0.75 209.55 0.75ZM215.15-23.45L215.15-23.45Q214-23.45 212.68-22.45 211.35-21.45 210.18-19.73 209-18 208.23-15.78 207.45-13.55 207.3-11.05L207.3-11.05Q212.8-12.55 215.13-15 217.45-17.45 217.45-20.55L217.45-20.55Q217.45-22.05 216.8-22.75 216.15-23.45 215.15-23.45ZM244.9 0L232.55 0 232.65-0.5 233.2-0.7Q235.35-1.45 235.75-3.6L235.75-3.6 238.35-17.5Q238.9-20.25 239.4-23.13 239.9-26 240.5-29.5L240.5-29.5Q240.85-31.55 238.9-32.3L238.9-32.3 238.4-32.5 238.5-33 249.4-33Q255.85-33 258.78-30.53 261.7-28.05 261.7-24L261.7-24Q261.7-21.1 260.03-18.57 258.35-16.05 254.98-14.53 251.6-13 246.5-13L246.5-13 244.3-13Q243.9-11 243.48-8.58 243.05-6.15 242.6-3.7L242.6-3.7Q242.25-1.4 244.4-0.65L244.4-0.65 245-0.5 244.9 0ZM244.5-14L244.5-14 246.35-14Q250.15-14 252.5-16.73 254.85-19.45 254.85-24.25L254.85-24.25Q254.85-28 253.35-30 251.85-32 249.05-32L249.05-32 247.85-32Q247.05-27.5 246.2-23 245.35-18.5 244.5-14ZM271.6 0.75L271.6 0.75Q269 0.75 266.85-0.28 264.7-1.3 263.45-3.38 262.2-5.45 262.2-8.65L262.2-8.65Q262.2-11.85 263.28-14.75 264.35-17.65 266.3-19.93 268.25-22.2 270.85-23.5 273.45-24.8 276.5-24.8L276.5-24.8Q279.15-24.8 281.23-23.78 283.3-22.75 284.53-20.7 285.75-18.65 285.75-15.45L285.75-15.45Q285.75-12.3 284.68-9.38 283.6-6.45 281.68-4.17 279.75-1.9 277.18-0.58 274.6 0.75 271.6 0.75ZM272.2-0.25L272.2-0.25Q273.75-0.25 275.03-1.68 276.3-3.1 277.25-5.48 278.2-7.85 278.7-10.73 279.2-13.6 279.2-16.45L279.2-16.45Q279.2-20.6 278.35-22.2 277.5-23.8 276.15-23.8L276.15-23.8Q274.55-23.8 273.2-22.4 271.85-21 270.85-18.65 269.85-16.3 269.3-13.45 268.75-10.6 268.75-7.75L268.75-7.75Q268.75-3.5 269.75-1.88 270.75-0.25 272.2-0.25ZM298.1 0.1L294.95 0.45 294.5 0.05Q294-5.35 293.47-10 292.95-14.65 292.4-19L292.4-19Q292.3-20.05 291.97-20.4 291.65-20.75 291.15-20.75L291.15-20.75Q290.65-20.75 290-20.33 289.35-19.9 288.65-19.2L288.65-19.2 288.05-19.8Q289.8-22.3 291.47-23.55 293.15-24.8 294.85-24.8L294.85-24.8Q296.75-24.8 297.67-23.75 298.6-22.7 298.75-20.4L298.75-20.4Q299.05-17.2 299.32-13.28 299.6-9.35 299.8-5.5L299.8-5.5Q302.1-9.7 304.4-14.33 306.7-18.95 309.1-23.8L309.1-23.8 312.15-23.8Q312.35-22.35 312.6-19.9 312.85-17.45 313.07-14.6 313.3-11.75 313.55-9.03 313.8-6.3 314-4.3L314-4.3Q315.75-6.55 317.13-8.4 318.5-10.25 319.9-12.55L319.9-12.55Q320.7-13.85 320.95-15.15 321.2-16.45 320.7-17.7L320.7-17.7 319.85-19.9Q319.1-21.95 320.02-23.45 320.95-24.95 322.6-24.95L322.6-24.95Q324.2-24.95 324.97-23.93 325.75-22.9 325.75-21.3L325.75-21.3Q325.75-20.15 325.22-18.82 324.7-17.5 323.35-15.1L323.35-15.1Q321.45-11.75 318.45-7.8 315.45-3.85 311.7 0.1L311.7 0.1 308.75 0.45 308.3 0.05Q307.9-3.85 307.52-7.55 307.15-11.25 306.6-15.7L306.6-15.7Q304.75-11.8 302.52-7.63 300.3-3.45 298.1 0.1L298.1 0.1ZM335.25 0.75L335.25 0.75Q331.5 0.75 329.15-1.7 326.8-4.15 326.8-8.65L326.8-8.65Q326.8-11.85 327.9-14.75 329-17.65 330.98-19.93 332.95-22.2 335.55-23.5 338.15-24.8 341.2-24.8L341.2-24.8Q344.35-24.8 346.02-23.38 347.7-21.95 347.7-19.6L347.7-19.6Q347.7-17.65 345.88-15.75 344.05-13.85 340.75-12.33 337.45-10.8 333-10L333-10Q333.05-6.55 334.5-4.95 335.95-3.35 338.5-3.35L338.5-3.35Q340.65-3.35 342.45-4.53 344.25-5.7 345.5-7.3L345.5-7.3 346-6.95Q345-5 343.43-3.25 341.85-1.5 339.8-0.38 337.75 0.75 335.25 0.75ZM340.85-23.45L340.85-23.45Q339.7-23.45 338.38-22.45 337.05-21.45 335.88-19.73 334.7-18 333.93-15.78 333.15-13.55 333-11.05L333-11.05Q338.5-12.55 340.82-15 343.15-17.45 343.15-20.55L343.15-20.55Q343.15-22.05 342.5-22.75 341.85-23.45 340.85-23.45ZM355.35 0L349.35 0.35 348.85 0 352.65-18.3Q352.9-19.6 352.5-20.23 352.1-20.85 351.15-21.25L351.15-21.25 350.4-21.6 350.5-22.1 359.2-24.85 359.7-24.4 358.35-16.15Q359.4-18.55 360.8-20.5 362.2-22.45 363.75-23.63 365.3-24.8 366.85-24.8L366.85-24.8Q368.4-24.8 369.35-23.98 370.3-23.15 370.3-21.8L370.3-21.8Q370.3-20.4 369.48-19.5 368.65-18.6 367.25-18.6L367.25-18.6Q366.15-18.6 365.15-19.18 364.15-19.75 363.2-20.85L363.2-20.85Q361.45-19.55 360.2-17.48 358.95-15.4 357.9-12.95L357.9-12.95 357.4-10.65Q356.85-8 356.35-5.35 355.85-2.7 355.35 0L355.35 0ZM391.2 0.75L391.2 0.75Q388.6 0.75 386.45-0.28 384.3-1.3 383.05-3.38 381.8-5.45 381.8-8.65L381.8-8.65Q381.8-11.85 382.88-14.75 383.95-17.65 385.9-19.93 387.85-22.2 390.45-23.5 393.05-24.8 396.1-24.8L396.1-24.8Q398.75-24.8 400.83-23.78 402.9-22.75 404.13-20.7 405.35-18.65 405.35-15.45L405.35-15.45Q405.35-12.3 404.28-9.38 403.2-6.45 401.28-4.17 399.35-1.9 396.78-0.58 394.2 0.75 391.2 0.75ZM391.8-0.25L391.8-0.25Q393.35-0.25 394.63-1.68 395.9-3.1 396.85-5.48 397.8-7.85 398.3-10.73 398.8-13.6 398.8-16.45L398.8-16.45Q398.8-20.6 397.95-22.2 397.1-23.8 395.75-23.8L395.75-23.8Q394.15-23.8 392.8-22.4 391.45-21 390.45-18.65 389.45-16.3 388.9-13.45 388.35-10.6 388.35-7.75L388.35-7.75Q388.35-3.5 389.35-1.88 390.35-0.25 391.8-0.25ZM402.75 12L402.75 12Q400.65 12 398.95 11.05 397.25 10.1 397.25 8.35L397.25 8.35Q397.25 7.05 398.1 6.35 398.95 5.65 400.1 5.65L400.1 5.65Q401.25 5.65 402.23 6.25 403.2 6.85 403.95 8.35L403.95 8.35 404.45 9.6Q404.75 10.15 405.15 10.23 405.55 10.3 405.9 9.7L405.9 9.7Q406.15 9.25 406.35 8.68 406.55 8.1 406.85 7.25L406.85 7.25Q407.55 5.55 408.07 3.13 408.6 0.7 409.05-2.25L409.05-2.25Q409.85-7.15 410.6-12.3 411.35-17.45 412.15-23.15L412.15-23.15 408.1-23.15 408.2-23.6 410.15-23.8Q411.35-23.95 411.95-24.6 412.55-25.25 412.9-26.5L412.9-26.5Q414.25-30.85 417.25-33.2 420.25-35.55 424.65-35.55L424.65-35.55Q427.15-35.55 428.7-34.48 430.25-33.4 430.25-31.75L430.25-31.75Q430.25-30.4 429.4-29.6 428.55-28.8 427.35-28.8L427.35-28.8Q425-28.8 423.45-31.95L423.45-31.95 423.25-32.75Q422.8-33.8 422.23-33.77 421.65-33.75 421.25-33L421.25-33Q420.4-31.8 419.7-29.65 419-27.5 418.45-24.05L418.45-24.05 424.55-24.05 424.3-23 418.3-23.05Q417.5-17.75 416.73-12.43 415.95-7.1 415.05-2.2L415.05-2.2Q414.35 1.5 413.23 4.23 412.1 6.95 410.2 8.85L410.2 8.85Q408.65 10.4 406.73 11.2 404.8 12 402.75 12ZM445.6 0L432.75 0 432.9-0.5 433.7-0.85Q434.7-1.3 435.25-1.95 435.8-2.6 436-3.7L436-3.7 438.6-17.5Q439.1-20.15 439.65-23.3 440.2-26.45 440.7-29.35L440.7-29.35Q441-31.3 439.3-32.15L439.3-32.15 438.65-32.5 438.75-33 450-33Q455.2-33 458.7-31.2 462.2-29.4 463.95-26.25 465.7-23.1 465.7-19.1L465.7-19.1Q465.7-14.6 464.1-11.05 462.5-7.5 459.73-5.05 456.95-2.6 453.33-1.3 449.7 0 445.6 0L445.6 0ZM442.4-1L442.4-1 444.95-1Q449.25-1 452.25-3.4 455.25-5.8 456.88-10 458.5-14.2 458.5-19.55L458.5-19.55Q458.5-25.75 456.2-28.78 453.9-31.8 449.45-32L449.45-32 448.1-32 444.95-15.55Q444.3-11.9 443.63-8.25 442.95-4.6 442.4-1ZM476.65-27.6L476.65-27.6Q475.25-27.6 474.23-28.53 473.2-29.45 473.2-31L473.2-31Q473.2-32.75 474.43-33.88 475.65-35 477.2-35L477.2-35Q478.7-35 479.65-34.05 480.6-33.1 480.6-31.6L480.6-31.6Q480.6-29.9 479.4-28.75 478.2-27.6 476.65-27.6ZM472 0.75L472 0.75Q470.45 0.75 469.45-0.05 468.45-0.85 468.45-2.4L468.45-2.4Q468.45-3.3 468.65-4.55 468.85-5.8 469.1-7.05L469.1-7.05 471.45-18.3Q471.9-20.35 470-21.2L470-21.2 469.2-21.6 469.25-22.15 478.65-24.85 479.15-24.4 475.25-6.3Q475.05-5.4 474.95-4.78 474.85-4.15 474.85-3.55L474.85-3.55Q474.85-2.45 475.85-2.45L475.85-2.45Q476.6-2.45 477.35-2.93 478.1-3.4 479.25-4.5L479.25-4.5 479.7-4.05Q478.45-2.2 476.53-0.73 474.6 0.75 472 0.75ZM487.7 11.8L487.7 11.8Q483.5 11.8 481.07 10.5 478.65 9.2 478.65 6.7L478.65 6.7Q478.65 5.15 479.75 3.88 480.85 2.6 482.48 1.65 484.1 0.7 485.8 0.15L485.8 0.15Q484.1-0.3 483.15-1.07 482.2-1.85 482.2-3.05L482.2-3.05Q482.2-4.25 483.63-5.88 485.05-7.5 487-9L487-9Q485.55-10 484.8-11.5 484.05-13 484.05-14.65L484.05-14.65Q484.05-17.4 485.45-19.7 486.85-22 489.23-23.4 491.6-24.8 494.45-24.8L494.45-24.8Q496.35-24.8 497.98-24.28 499.6-23.75 500.7-22.7L500.7-22.7Q502.3-22.95 503.78-23.48 505.25-24 506.6-24.8L506.6-24.8 506.95-24.45 506.45-21.85 501.45-21.85Q502.65-20.25 502.65-18L502.65-18Q502.65-14.95 501.32-12.6 500-10.25 497.65-8.93 495.3-7.6 492.15-7.6L492.15-7.6Q489.75-7.6 487.9-8.5L487.9-8.5 487.15-7.25Q486.75-6.65 486.9-6.05 487.05-5.45 487.95-5.3L487.95-5.3 496.15-3.65Q500.3-2.8 501.98-1.45 503.65-0.1 503.65 2.25L503.65 2.25Q503.65 5.05 501.57 7.2 499.5 9.35 495.9 10.58 492.3 11.8 487.7 11.8ZM493.05-8.6L493.05-8.6Q494.7-8.6 495.88-10.5 497.05-12.4 497.05-17.1L497.05-17.1Q497.05-20.3 496.2-22.05 495.35-23.8 494.05-23.8L494.05-23.8Q492.05-23.75 491-21.48 489.95-19.2 489.95-15.4L489.95-15.4Q489.95-12.65 490.68-10.6 491.4-8.55 493.05-8.6ZM483.7 4.95L483.7 4.95Q483.7 7.45 485.5 8.88 487.3 10.3 490.35 10.3L490.35 10.3Q494.2 10.3 496.4 9 498.6 7.7 498.6 5.25L498.6 5.25Q498.6 3.8 497.32 2.95 496.05 2.1 492.85 1.5L492.85 1.5 487 0.4Q486.75 0.35 486.55 0.3L486.55 0.3Q485.25 1.1 484.48 2.27 483.7 3.45 483.7 4.95ZM517-27.6L517-27.6Q515.6-27.6 514.58-28.53 513.55-29.45 513.55-31L513.55-31Q513.55-32.75 514.78-33.88 516-35 517.55-35L517.55-35Q519.05-35 520-34.05 520.95-33.1 520.95-31.6L520.95-31.6Q520.95-29.9 519.75-28.75 518.55-27.6 517-27.6ZM512.35 0.75L512.35 0.75Q510.8 0.75 509.8-0.05 508.8-0.85 508.8-2.4L508.8-2.4Q508.8-3.3 509-4.55 509.2-5.8 509.45-7.05L509.45-7.05 511.8-18.3Q512.25-20.35 510.35-21.2L510.35-21.2 509.55-21.6 509.6-22.15 519-24.85 519.5-24.4 515.6-6.3Q515.4-5.4 515.3-4.78 515.2-4.15 515.2-3.55L515.2-3.55Q515.2-2.45 516.2-2.45L516.2-2.45Q516.95-2.45 517.7-2.93 518.45-3.4 519.6-4.5L519.6-4.5 520.05-4.05Q518.8-2.2 516.88-0.73 514.95 0.75 512.35 0.75ZM527.6 0.75L527.6 0.75Q526.05 0.75 525.03-0.08 524-0.9 524-2.5L524-2.5Q524-3.5 524.2-4.67 524.4-5.85 524.65-7.2L524.65-7.2 528.1-23 523.95-23 524.1-23.6 525.9-23.8Q527.3-23.95 528.35-24.5 529.4-25.05 530.35-26.05L530.35-26.05 535.15-30.9 535.9-30.9 534.5-24.05 539.95-24.05 539.7-23 534.25-23 530.8-6.35Q530.6-5.4 530.5-4.73 530.4-4.05 530.4-3.6L530.4-3.6Q530.4-3.1 530.7-2.8 531-2.5 531.35-2.5L531.35-2.5Q532.05-2.5 532.85-3.08 533.65-3.65 534.85-4.8L534.85-4.8 535.45-4.3Q534.2-2.45 532.2-0.85 530.2 0.75 527.6 0.75ZM544.7 0.75L544.7 0.75Q543.3 0.75 542.05 0.1 540.8-0.55 540.03-2.05 539.25-3.55 539.25-6L539.25-6Q539.25-8.65 540.3-11.33 541.35-14 543.1-16.43 544.85-18.85 547-20.73 549.15-22.6 551.45-23.7 553.75-24.8 555.8-24.8L555.8-24.8Q556.8-24.8 557.68-24.43 558.55-24.05 559.35-23.4L559.35-23.4 563.4-24.95 563.8-24.7 559.45-5.55Q559.1-4.15 559.1-3.25L559.1-3.25Q559.1-2.2 560.05-2.2L560.05-2.2Q560.75-2.2 561.68-2.85 562.6-3.5 563.8-4.6L563.8-4.6 564.2-4.2Q563.45-3 562.33-1.88 561.2-0.75 559.83 0 558.45 0.75 556.9 0.75L556.9 0.75Q555.2 0.75 554.15-0.28 553.1-1.3 553.1-3.45L553.1-3.45Q553.1-4.15 553.15-4.8L553.15-4.8Q551.15-2.55 548.93-0.9 546.7 0.75 544.7 0.75ZM545.15-8.25L545.15-8.25Q545.15-5.6 546.03-4.42 546.9-3.25 548.35-3.25L548.35-3.25Q549.55-3.25 550.75-4 551.95-4.75 553.35-6.15L553.35-6.15Q553.45-6.75 553.6-7.4L553.6-7.4 556.75-21.8Q556.1-22.6 555.2-22.9 554.3-23.2 553.6-23.2L553.6-23.2Q551.45-23.2 549.1-20.65L549.1-20.65Q547.25-18.6 546.2-15.25 545.15-11.9 545.15-8.25ZM570.65 0.75L570.65 0.75Q569 0.75 568.03-0.1 567.05-0.95 567.05-2.55L567.05-2.55Q567.05-3.45 567.25-4.73 567.45-6 567.85-8L567.85-8 570.7-21.8Q571.1-23.7 571.38-25.25 571.65-26.8 572-28.75L572-28.75Q572.35-30.75 570.4-31.45L570.4-31.45 569.55-31.75 569.65-32.25 579.45-35.05 579.75-34.7 573.6-5.7Q573.45-4.95 573.35-4.38 573.25-3.8 573.25-3.4L573.25-3.4Q573.25-2.3 574.2-2.3L574.2-2.3Q575.45-2.3 577.85-4.55L577.85-4.55 578.35-4.15Q577.1-2.3 575.2-0.78 573.3 0.75 570.65 0.75ZM609.55 0L596.15 0 596.25-0.5 597.45-0.95Q599.75-1.9 600.25-4.35L600.25-4.35 602.7-17.5Q603.1-19.6 603.58-22.18 604.05-24.75 604.5-27.33 604.95-29.9 605.3-32L605.3-32 603.15-32Q601.35-32 600.05-31.35 598.75-30.7 597.7-29.25L597.7-29.25 593.7-23.8 593.2-23.8 595.05-33 622.75-33 621.15-23.8 620.65-23.8 618.8-28.85Q617.7-32 614.25-32L614.25-32 612.2-32 609.1-15.55Q608.6-13 608.08-10.08 607.55-7.15 607.05-4.4L607.05-4.4Q606.6-1.8 609-0.8L609-0.8 609.65-0.5 609.55 0ZM626.3 0L620.3 0.35 619.8 0 623.6-18.3Q623.85-19.6 623.45-20.23 623.05-20.85 622.1-21.25L622.1-21.25 621.35-21.6 621.45-22.1 630.15-24.85 630.65-24.4 629.3-16.15Q630.35-18.55 631.75-20.5 633.15-22.45 634.7-23.63 636.25-24.8 637.8-24.8L637.8-24.8Q639.35-24.8 640.3-23.98 641.25-23.15 641.25-21.8L641.25-21.8Q641.25-20.4 640.43-19.5 639.6-18.6 638.2-18.6L638.2-18.6Q637.1-18.6 636.1-19.18 635.1-19.75 634.15-20.85L634.15-20.85Q632.4-19.55 631.15-17.48 629.9-15.4 628.85-12.95L628.85-12.95 628.35-10.65Q627.8-8 627.3-5.35 626.8-2.7 626.3 0L626.3 0ZM644.4 0.75L644.4 0.75Q643 0.75 641.75 0.1 640.5-0.55 639.73-2.05 638.95-3.55 638.95-6L638.95-6Q638.95-8.65 640-11.33 641.05-14 642.8-16.43 644.55-18.85 646.7-20.73 648.85-22.6 651.15-23.7 653.45-24.8 655.5-24.8L655.5-24.8Q656.5-24.8 657.38-24.43 658.25-24.05 659.05-23.4L659.05-23.4 663.1-24.95 663.5-24.7 659.15-5.55Q658.8-4.15 658.8-3.25L658.8-3.25Q658.8-2.2 659.75-2.2L659.75-2.2Q660.45-2.2 661.38-2.85 662.3-3.5 663.5-4.6L663.5-4.6 663.9-4.2Q663.15-3 662.03-1.88 660.9-0.75 659.53 0 658.15 0.75 656.6 0.75L656.6 0.75Q654.9 0.75 653.85-0.28 652.8-1.3 652.8-3.45L652.8-3.45Q652.8-4.15 652.85-4.8L652.85-4.8Q650.85-2.55 648.63-0.9 646.4 0.75 644.4 0.75ZM644.85-8.25L644.85-8.25Q644.85-5.6 645.73-4.42 646.6-3.25 648.05-3.25L648.05-3.25Q649.25-3.25 650.45-4 651.65-4.75 653.05-6.15L653.05-6.15Q653.15-6.75 653.3-7.4L653.3-7.4 656.45-21.8Q655.8-22.6 654.9-22.9 654-23.2 653.3-23.2L653.3-23.2Q651.15-23.2 648.8-20.65L648.8-20.65Q646.95-18.6 645.9-15.25 644.85-11.9 644.85-8.25ZM672.9 0L666.85 0.35 666.4 0 670.25-18.4Q670.7-20.35 668.85-21.2L668.85-21.2 668-21.6 668.05-22.1 677.35-24.85 677.8-24.45 676.65-18.4Q679.25-21.35 681.95-23.08 684.65-24.8 687.05-24.8L687.05-24.8Q688.65-24.8 689.7-23.83 690.75-22.85 690.75-20.8L690.75-20.8Q690.75-19.75 690.55-18.63 690.35-17.5 690.05-16.3L690.05-16.3 687.4-5.65Q687.2-4.85 687.1-4.33 687-3.8 687-3.4L687-3.4Q687-2.35 687.85-2.35L687.85-2.35Q689.25-2.35 691.4-4.6L691.4-4.6 691.9-4.1Q690.65-2.25 688.6-0.75 686.55 0.75 684.05 0.75L684.05 0.75Q682.4 0.75 681.5-0.03 680.6-0.8 680.6-2.2L680.6-2.2Q680.6-3.25 680.85-4.38 681.1-5.5 681.4-6.7L681.4-6.7 683.35-14.5Q683.75-16.1 684-17.35 684.25-18.6 684.25-19.65L684.25-19.65Q684.25-20.55 683.85-20.93 683.45-21.3 682.75-21.3L682.75-21.3Q681.55-21.3 679.93-20.25 678.3-19.2 676.35-16.95L676.35-16.95 674.95-10.65Q674.4-8 673.9-5.35 673.4-2.7 672.9 0L672.9 0ZM700.6 0.75L700.6 0.75Q697.45 0.75 695.5-0.5 693.55-1.75 693.55-4.05L693.55-4.05Q693.55-5.25 694.4-6.15 695.25-7.05 696.6-7.05L696.6-7.05Q699.1-7.05 699.7-4L699.7-4 700-2.6Q700.25-1.55 700.63-0.9 701-0.25 702.1-0.25L702.1-0.25Q703.35-0.25 704.3-1.3 705.25-2.35 705.25-4.2L705.25-4.2Q705.25-5.6 704.38-6.9 703.5-8.2 701.45-9.75L701.45-9.75Q699.4-11.35 698.15-13.08 696.9-14.8 696.9-17.2L696.9-17.2Q696.9-19.3 697.98-21.03 699.05-22.75 701.1-23.78 703.15-24.8 705.95-24.8L705.95-24.8Q709.2-24.8 711.08-23.5 712.95-22.2 712.95-20.15L712.95-20.15Q712.95-19.05 712.3-18.32 711.65-17.6 710.35-17.6L710.35-17.6Q707.95-17.6 707.1-20.5L707.1-20.5 706.6-21.9Q706.35-22.9 706-23.3 705.65-23.7 704.9-23.7L704.9-23.7Q704.1-23.7 703.25-22.83 702.4-21.95 702.4-20.05L702.4-20.05Q702.4-18.25 703.48-16.78 704.55-15.3 706.7-13.7L706.7-13.7Q708.9-12.05 709.93-10.5 710.95-8.95 710.95-6.75L710.95-6.75Q710.95-4.7 709.75-3 708.55-1.3 706.25-0.28 703.95 0.75 700.6 0.75ZM710.15 12L710.15 12Q708.05 12 706.35 11.05 704.65 10.1 704.65 8.35L704.65 8.35Q704.65 7.05 705.5 6.35 706.35 5.65 707.5 5.65L707.5 5.65Q708.65 5.65 709.63 6.25 710.6 6.85 711.35 8.35L711.35 8.35 711.85 9.6Q712.15 10.15 712.55 10.23 712.95 10.3 713.3 9.7L713.3 9.7Q713.55 9.25 713.75 8.68 713.95 8.1 714.25 7.25L714.25 7.25Q714.95 5.55 715.48 3.13 716 0.7 716.45-2.25L716.45-2.25Q717.25-7.15 718-12.3 718.75-17.45 719.55-23.15L719.55-23.15 715.5-23.15 715.6-23.6 717.55-23.8Q718.75-23.95 719.35-24.6 719.95-25.25 720.3-26.5L720.3-26.5Q721.65-30.85 724.65-33.2 727.65-35.55 732.05-35.55L732.05-35.55Q734.55-35.55 736.1-34.48 737.65-33.4 737.65-31.75L737.65-31.75Q737.65-30.4 736.8-29.6 735.95-28.8 734.75-28.8L734.75-28.8Q732.4-28.8 730.85-31.95L730.85-31.95 730.65-32.75Q730.2-33.8 729.63-33.77 729.05-33.75 728.65-33L728.65-33Q727.8-31.8 727.1-29.65 726.4-27.5 725.85-24.05L725.85-24.05 731.95-24.05 731.7-23 725.7-23.05Q724.9-17.75 724.13-12.43 723.35-7.1 722.45-2.2L722.45-2.2Q721.75 1.5 720.63 4.23 719.5 6.95 717.6 8.85L717.6 8.85Q716.05 10.4 714.13 11.2 712.2 12 710.15 12ZM740.1 0.75L740.1 0.75Q737.5 0.75 735.35-0.28 733.2-1.3 731.95-3.38 730.7-5.45 730.7-8.65L730.7-8.65Q730.7-11.85 731.78-14.75 732.85-17.65 734.8-19.93 736.75-22.2 739.35-23.5 741.95-24.8 745-24.8L745-24.8Q747.65-24.8 749.73-23.78 751.8-22.75 753.03-20.7 754.25-18.65 754.25-15.45L754.25-15.45Q754.25-12.3 753.18-9.38 752.1-6.45 750.18-4.17 748.25-1.9 745.68-0.58 743.1 0.75 740.1 0.75ZM740.7-0.25L740.7-0.25Q742.25-0.25 743.53-1.68 744.8-3.1 745.75-5.48 746.7-7.85 747.2-10.73 747.7-13.6 747.7-16.45L747.7-16.45Q747.7-20.6 746.85-22.2 746-23.8 744.65-23.8L744.65-23.8Q743.05-23.8 741.7-22.4 740.35-21 739.35-18.65 738.35-16.3 737.8-13.45 737.25-10.6 737.25-7.75L737.25-7.75Q737.25-3.5 738.25-1.88 739.25-0.25 740.7-0.25ZM762.75 0L756.75 0.35 756.25 0 760.05-18.3Q760.3-19.6 759.9-20.23 759.5-20.85 758.55-21.25L758.55-21.25 757.8-21.6 757.9-22.1 766.6-24.85 767.1-24.4 765.75-16.15Q766.8-18.55 768.2-20.5 769.6-22.45 771.15-23.63 772.7-24.8 774.25-24.8L774.25-24.8Q775.8-24.8 776.75-23.98 777.7-23.15 777.7-21.8L777.7-21.8Q777.7-20.4 776.88-19.5 776.05-18.6 774.65-18.6L774.65-18.6Q773.55-18.6 772.55-19.18 771.55-19.75 770.6-20.85L770.6-20.85Q768.85-19.55 767.6-17.48 766.35-15.4 765.3-12.95L765.3-12.95 764.8-10.65Q764.25-8 763.75-5.35 763.25-2.7 762.75 0L762.75 0ZM784.05 0L784.05 0 777.95 0.35 777.55 0 781.4-18.4Q781.85-20.4 780-21.15L780-21.15 779.1-21.6 779.2-22.1 788.5-24.85 788.95-24.4 787.9-19Q790.45-21.65 793.1-23.23 795.75-24.8 798.05-24.8L798.05-24.8Q799.65-24.8 800.7-23.83 801.75-22.85 801.75-20.8L801.75-20.8Q801.75-20.35 801.7-19.9 801.65-19.45 801.6-18.95L801.6-18.95Q804.1-21.65 806.68-23.23 809.25-24.8 811.6-24.8L811.6-24.8Q813.2-24.8 814.23-23.83 815.25-22.85 815.25-20.8L815.25-20.8Q815.25-19.75 815.05-18.63 814.85-17.5 814.55-16.3L814.55-16.3 811.95-5.6Q811.75-4.8 811.6-4.25 811.45-3.7 811.45-3.3L811.45-3.3Q811.45-2.25 812.3-2.25L812.3-2.25Q813.05-2.25 813.98-2.88 814.9-3.5 816-4.6L816-4.6 816.5-4.1Q815.8-3 814.65-1.88 813.5-0.75 811.98 0 810.45 0.75 808.55 0.75L808.55 0.75Q806.9 0.75 806-0.03 805.1-0.8 805.1-2.2L805.1-2.2Q805.1-3.25 805.35-4.38 805.6-5.5 805.95-6.7L805.95-6.7 808-15.15Q808.3-16.45 808.53-17.55 808.75-18.65 808.75-19.35L808.75-19.35Q808.75-21.1 807.15-21.1L807.15-21.1Q804.85-21.1 801.35-17.65L801.35-17.65Q801.3-17.55 801.28-17.43 801.25-17.3 801.25-17.15L801.25-17.15 799.85-10.65Q799.3-8 798.8-5.35 798.3-2.7 797.75 0L797.75 0 791.7 0.35 791.3 0 794.65-15.85Q794.85-16.85 795-17.73 795.15-18.6 795.15-19.25L795.15-19.25Q795.15-20.9 793.65-20.9L793.65-20.9Q791.1-20.9 787.65-17.65L787.65-17.65 786.1-10.65Q785.55-8 785.05-5.35 784.55-2.7 784.05 0ZM824.65 0.75L824.65 0.75Q823.25 0.75 822 0.1 820.75-0.55 819.98-2.05 819.2-3.55 819.2-6L819.2-6Q819.2-8.65 820.25-11.33 821.3-14 823.05-16.43 824.8-18.85 826.95-20.73 829.1-22.6 831.4-23.7 833.7-24.8 835.75-24.8L835.75-24.8Q836.75-24.8 837.63-24.43 838.5-24.05 839.3-23.4L839.3-23.4 843.35-24.95 843.75-24.7 839.4-5.55Q839.05-4.15 839.05-3.25L839.05-3.25Q839.05-2.2 840-2.2L840-2.2Q840.7-2.2 841.63-2.85 842.55-3.5 843.75-4.6L843.75-4.6 844.15-4.2Q843.4-3 842.28-1.88 841.15-0.75 839.78 0 838.4 0.75 836.85 0.75L836.85 0.75Q835.15 0.75 834.1-0.28 833.05-1.3 833.05-3.45L833.05-3.45Q833.05-4.15 833.1-4.8L833.1-4.8Q831.1-2.55 828.88-0.9 826.65 0.75 824.65 0.75ZM825.1-8.25L825.1-8.25Q825.1-5.6 825.98-4.42 826.85-3.25 828.3-3.25L828.3-3.25Q829.5-3.25 830.7-4 831.9-4.75 833.3-6.15L833.3-6.15Q833.4-6.75 833.55-7.4L833.55-7.4 836.7-21.8Q836.05-22.6 835.15-22.9 834.25-23.2 833.55-23.2L833.55-23.2Q831.4-23.2 829.05-20.65L829.05-20.65Q827.2-18.6 826.15-15.25 825.1-11.9 825.1-8.25ZM851.95 0.75L851.95 0.75Q850.4 0.75 849.38-0.08 848.35-0.9 848.35-2.5L848.35-2.5Q848.35-3.5 848.55-4.67 848.75-5.85 849-7.2L849-7.2 852.45-23 848.3-23 848.45-23.6 850.25-23.8Q851.65-23.95 852.7-24.5 853.75-25.05 854.7-26.05L854.7-26.05 859.5-30.9 860.25-30.9 858.85-24.05 864.3-24.05 864.05-23 858.6-23 855.15-6.35Q854.95-5.4 854.85-4.73 854.75-4.05 854.75-3.6L854.75-3.6Q854.75-3.1 855.05-2.8 855.35-2.5 855.7-2.5L855.7-2.5Q856.4-2.5 857.2-3.08 858-3.65 859.2-4.8L859.2-4.8 859.8-4.3Q858.55-2.45 856.55-0.85 854.55 0.75 851.95 0.75ZM872.7-27.6L872.7-27.6Q871.3-27.6 870.28-28.53 869.25-29.45 869.25-31L869.25-31Q869.25-32.75 870.48-33.88 871.7-35 873.25-35L873.25-35Q874.75-35 875.7-34.05 876.65-33.1 876.65-31.6L876.65-31.6Q876.65-29.9 875.45-28.75 874.25-27.6 872.7-27.6ZM868.05 0.75L868.05 0.75Q866.5 0.75 865.5-0.05 864.5-0.85 864.5-2.4L864.5-2.4Q864.5-3.3 864.7-4.55 864.9-5.8 865.15-7.05L865.15-7.05 867.5-18.3Q867.95-20.35 866.05-21.2L866.05-21.2 865.25-21.6 865.3-22.15 874.7-24.85 875.2-24.4 871.3-6.3Q871.1-5.4 871-4.78 870.9-4.15 870.9-3.55L870.9-3.55Q870.9-2.45 871.9-2.45L871.9-2.45Q872.65-2.45 873.4-2.93 874.15-3.4 875.3-4.5L875.3-4.5 875.75-4.05Q874.5-2.2 872.58-0.73 870.65 0.75 868.05 0.75ZM887.9 0.75L887.9 0.75Q885.3 0.75 883.15-0.28 881-1.3 879.75-3.38 878.5-5.45 878.5-8.65L878.5-8.65Q878.5-11.85 879.58-14.75 880.65-17.65 882.6-19.93 884.55-22.2 887.15-23.5 889.75-24.8 892.8-24.8L892.8-24.8Q895.45-24.8 897.53-23.78 899.6-22.75 900.83-20.7 902.05-18.65 902.05-15.45L902.05-15.45Q902.05-12.3 900.98-9.38 899.9-6.45 897.98-4.17 896.05-1.9 893.48-0.58 890.9 0.75 887.9 0.75ZM888.5-0.25L888.5-0.25Q890.05-0.25 891.33-1.68 892.6-3.1 893.55-5.48 894.5-7.85 895-10.73 895.5-13.6 895.5-16.45L895.5-16.45Q895.5-20.6 894.65-22.2 893.8-23.8 892.45-23.8L892.45-23.8Q890.85-23.8 889.5-22.4 888.15-21 887.15-18.65 886.15-16.3 885.6-13.45 885.05-10.6 885.05-7.75L885.05-7.75Q885.05-3.5 886.05-1.88 887.05-0.25 888.5-0.25ZM910.55 0L904.5 0.35 904.05 0 907.9-18.4Q908.35-20.35 906.5-21.2L906.5-21.2 905.65-21.6 905.7-22.1 915-24.85 915.45-24.45 914.3-18.4Q916.9-21.35 919.6-23.08 922.3-24.8 924.7-24.8L924.7-24.8Q926.3-24.8 927.35-23.83 928.4-22.85 928.4-20.8L928.4-20.8Q928.4-19.75 928.2-18.63 928-17.5 927.7-16.3L927.7-16.3 925.05-5.65Q924.85-4.85 924.75-4.33 924.65-3.8 924.65-3.4L924.65-3.4Q924.65-2.35 925.5-2.35L925.5-2.35Q926.9-2.35 929.05-4.6L929.05-4.6 929.55-4.1Q928.3-2.25 926.25-0.75 924.2 0.75 921.7 0.75L921.7 0.75Q920.05 0.75 919.15-0.03 918.25-0.8 918.25-2.2L918.25-2.2Q918.25-3.25 918.5-4.38 918.75-5.5 919.05-6.7L919.05-6.7 921-14.5Q921.4-16.1 921.65-17.35 921.9-18.6 921.9-19.65L921.9-19.65Q921.9-20.55 921.5-20.93 921.1-21.3 920.4-21.3L920.4-21.3Q919.2-21.3 917.58-20.25 915.95-19.2 914-16.95L914-16.95 912.6-10.65Q912.05-8 911.55-5.35 911.05-2.7 910.55 0L910.55 0Z" opacity="1" transform="matrix(1,0,0,1,0,0)" fill="#3e0e71" class="slogan-text-1" data-fill-palette-color="secondary" id="text-1"></path></svg></g></svg></g></svg></g></svg></g><g></g></svg></g></svg></g></svg></g><path d="M0 74.178L0 1 244.431 1 244.431 74.178 239.012 74.178 239.012 6.42 5.42 6.42 5.42 74.178 0 74.178M0 173.022L0 246.2 244.431 246.2 244.431 173.022 239.012 173.022 239.012 240.78 5.42 240.78 5.42 173.022 0 173.022" fill="#3e0e71" stroke="transparent" data-fill-palette-color="tertiary"></path></svg></g><defs></defs></svg><rect width="244.43135999999996" height="247.2" fill="none" stroke="none" visibility="hidden"></rect></g></svg></g></svg>